<svg width="21" height="19" viewBox="0 0 21 19" fill="none" xmlns="http://www.w3.org/2000/svg">
<g clip-path="url(#clip0_19_589)">
<g clip-path="url(#clip1_19_589)">
<rect opacity="0.2" x="4.05" y="4.05" width="15.9" height="15.9" stroke="#FF35D3" stroke-width="0.1"/>
<rect opacity="0.2" x="7.05" y="7.05" width="9.9" height="9.9" stroke="#FF35D3" stroke-width="0.1"/>
<rect opacity="0.2" x="6.05" y="3.05" width="11.9" height="17.9" stroke="#FF35D3" stroke-width="0.1"/>
<rect opacity="0.2" x="20.95" y="6.05" width="11.9" height="17.9" transform="rotate(90 20.95 6.05)" stroke="#FF35D3" stroke-width="0.1"/>
<circle opacity="0.2" cx="12" cy="12" r="9.95" stroke="#FF35D3" stroke-width="0.1"/>
<circle opacity="0.2" cx="12" cy="12" r="2.95" stroke="#FF35D3" stroke-width="0.1"/>
<circle opacity="0.2" cx="12" cy="12" r="6.95" stroke="#FF35D3" stroke-width="0.1"/>
<line opacity="0.2" x1="4.03536" y1="3.96464" x2="20.0354" y2="19.9646" stroke="#FF35D3" stroke-width="0.1"/>
<line opacity="0.2" x1="0.686279" y1="11.95" x2="23.3137" y2="11.95" stroke="#FF35D3" stroke-width="0.1"/>
<line opacity="0.2" x1="20.0354" y1="4.03536" x2="4.03535" y2="20.0354" stroke="#FF35D3" stroke-width="0.1"/>
<line opacity="0.2" x1="12.05" y1="0.686279" x2="12.05" y2="23.3137" stroke="#FF35D3" stroke-width="0.1"/>
</g>
<path d="M6.125 15.8333V3.95833H6.5625L14.4375 15.0417H14.875V3.16667M3.5 7.91667H17.5M3.5 11.0833H17.5" stroke="#22C7A9" stroke-width="2"/>
</g>
<defs>
<clipPath id="clip0_19_589">
<rect width="21" height="19" fill="white"/>
</clipPath>
<clipPath id="clip1_19_589">
<rect width="24" height="24" fill="white"/>
</clipPath>
</defs>
</svg>
