<svg width="24" height="20" viewBox="0 0 24 20" fill="none" xmlns="http://www.w3.org/2000/svg">
<g opacity="0.85" clip-path="url(#clip0_11_100)">
<g clip-path="url(#clip1_11_100)">
<rect opacity="0.2" x="4.05" y="4.05" width="15.9" height="15.9" stroke="#FF35D3" stroke-width="0.1"/>
<rect opacity="0.2" x="7.05" y="7.05" width="9.9" height="9.9" stroke="#FF35D3" stroke-width="0.1"/>
<rect opacity="0.2" x="6.05" y="3.05" width="11.9" height="17.9" stroke="#FF35D3" stroke-width="0.1"/>
<rect opacity="0.2" x="20.95" y="6.05" width="11.9" height="17.9" transform="rotate(90 20.95 6.05)" stroke="#FF35D3" stroke-width="0.1"/>
<circle opacity="0.2" cx="12" cy="12" r="9.95" stroke="#FF35D3" stroke-width="0.1"/>
<circle opacity="0.2" cx="12" cy="12" r="2.95" stroke="#FF35D3" stroke-width="0.1"/>
<circle opacity="0.2" cx="12" cy="12" r="6.95" stroke="#FF35D3" stroke-width="0.1"/>
<line opacity="0.2" x1="4.03536" y1="3.96464" x2="20.0354" y2="19.9646" stroke="#FF35D3" stroke-width="0.1"/>
<line opacity="0.2" x1="0.686279" y1="11.95" x2="23.3137" y2="11.95" stroke="#FF35D3" stroke-width="0.1"/>
<line opacity="0.2" x1="20.0354" y1="4.03536" x2="4.03535" y2="20.0354" stroke="#FF35D3" stroke-width="0.1"/>
<line opacity="0.2" x1="12.05" y1="0.686279" x2="12.05" y2="23.3137" stroke="#FF35D3" stroke-width="0.1"/>
</g>
<path d="M7 16.6667V4.16668H7.5L16.5 15.8333H17V3.33334M4 8.33334H20M4 11.6667H20" stroke="white" stroke-width="2"/>
</g>
<defs>
<clipPath id="clip0_11_100">
<rect width="24" height="20" fill="white"/>
</clipPath>
<clipPath id="clip1_11_100">
<rect width="24" height="24" fill="white"/>
</clipPath>
</defs>
</svg>
