<svg width="35" height="33" viewBox="0 0 35 33" fill="none" xmlns="http://www.w3.org/2000/svg">
<path d="M31.5 0H3.5C1.575 0 0.0175 1.85625 0.0175 4.125L0 28.875C0 31.1438 1.575 33 3.5 33H31.5C33.425 33 35 31.1438 35 28.875V4.125C35 1.85625 33.425 0 31.5 0ZM30.8 8.76563L18.4275 17.8819C17.8675 18.2944 17.1325 18.2944 16.5725 17.8819L4.2 8.76563C4.02452 8.64953 3.87086 8.49268 3.7483 8.30456C3.62575 8.11645 3.53686 7.90098 3.48701 7.6712C3.43715 7.44143 3.42738 7.20212 3.45827 6.96776C3.48917 6.7334 3.56009 6.50887 3.66674 6.30775C3.7734 6.10663 3.91357 5.9331 4.07877 5.79768C4.24397 5.66225 4.43077 5.56774 4.62787 5.51987C4.82496 5.47199 5.02824 5.47174 5.22542 5.51914C5.4226 5.56654 5.60956 5.6606 5.775 5.79563L17.5 14.4375L29.225 5.79563C29.3904 5.6606 29.5774 5.56654 29.7746 5.51914C29.9718 5.47174 30.175 5.47199 30.3721 5.51987C30.5692 5.56774 30.756 5.66225 30.9212 5.79768C31.0864 5.9331 31.2266 6.10663 31.3333 6.30775C31.4399 6.50887 31.5108 6.7334 31.5417 6.96776C31.5726 7.20212 31.5628 7.44143 31.513 7.6712C31.4631 7.90098 31.3743 8.11645 31.2517 8.30456C31.1291 8.49268 30.9755 8.64953 30.8 8.76563Z" fill="#22C7A9"/>
</svg>
