<svg width="25" height="18" viewBox="0 0 25 18" fill="none" xmlns="http://www.w3.org/2000/svg">
<path d="M16.4062 8.59375C16.4062 9.62975 15.9947 10.6233 15.2621 11.3559C14.5296 12.0884 13.536 12.5 12.5 12.5C11.464 12.5 10.4704 12.0884 9.73786 11.3559C9.0053 10.6233 8.59375 9.62975 8.59375 8.59375C8.59375 7.55775 9.0053 6.56418 9.73786 5.83161C10.4704 5.09905 11.464 4.6875 12.5 4.6875C13.536 4.6875 14.5296 5.09905 15.2621 5.83161C15.9947 6.56418 16.4062 7.55775 16.4062 8.59375Z" fill="#22C7A9"/>
<path d="M0 8.59375C0 8.59375 4.6875 0 12.5 0C20.3125 0 25 8.59375 25 8.59375C25 8.59375 20.3125 17.1875 12.5 17.1875C4.6875 17.1875 0 8.59375 0 8.59375ZM12.5 14.0625C13.9504 14.0625 15.3414 13.4863 16.367 12.4607C17.3926 11.4352 17.9688 10.0442 17.9688 8.59375C17.9688 7.14335 17.3926 5.75235 16.367 4.72676C15.3414 3.70117 13.9504 3.125 12.5 3.125C11.0496 3.125 9.6586 3.70117 8.63301 4.72676C7.60742 5.75235 7.03125 7.14335 7.03125 8.59375C7.03125 10.0442 7.60742 11.4352 8.63301 12.4607C9.6586 13.4863 11.0496 14.0625 12.5 14.0625Z" fill="#22C7A9"/>
</svg>
