<svg width="29" height="12" viewBox="0 0 29 12" fill="none" xmlns="http://www.w3.org/2000/svg">
<path d="M4.32071 11.2563C7.0087 11.2563 8.60538 9.1543 8.60538 5.59473C8.60538 4.25439 8.34903 3.12646 7.85831 2.25488C7.14786 0.899902 5.92471 0.16748 4.3793 0.16748C2.0795 0.16748 0.453522 1.71289 0.453522 3.88086C0.453522 5.91699 1.91837 7.39648 3.93253 7.39648C5.17032 7.39648 6.17374 6.81787 6.67178 5.81445H6.69376C6.69376 5.81445 6.72305 5.81445 6.73038 5.81445C6.74503 5.81445 6.7963 5.81445 6.7963 5.81445C6.7963 8.23145 5.88077 9.67432 4.33536 9.67432C3.42715 9.67432 2.72403 9.17627 2.48233 8.37793H0.600006C0.914948 10.1138 2.38712 11.2563 4.32071 11.2563ZM4.38663 5.89502C3.17081 5.89502 2.30655 5.03076 2.30655 3.82227C2.30655 2.64307 3.21475 1.74219 4.39395 1.74219C5.57315 1.74219 6.48135 2.65771 6.48135 3.85156C6.48135 5.03076 5.59512 5.89502 4.38663 5.89502Z" fill="black" fill-opacity="0.85"/>
<path d="M11.6965 11.1538C12.3923 11.1538 12.8684 10.6558 12.8684 9.99658C12.8684 9.33008 12.3923 8.83936 11.6965 8.83936C11.008 8.83936 10.5246 9.33008 10.5246 9.99658C10.5246 10.6558 11.008 11.1538 11.6965 11.1538ZM11.6965 5.66064C12.3923 5.66064 12.8684 5.16992 12.8684 4.51074C12.8684 3.84424 12.3923 3.35352 11.6965 3.35352C11.008 3.35352 10.5246 3.84424 10.5246 4.51074C10.5246 5.16992 11.008 5.66064 11.6965 5.66064Z" fill="black" fill-opacity="0.85"/>
<path d="M19.7241 11H21.5332V9.02979H22.9614V7.43311H21.5332V0.431152H18.8672C16.9995 3.24365 15.5127 5.59473 14.5606 7.34521V9.02979H19.7241V11ZM16.311 7.36719C17.5415 5.19922 18.6401 3.46338 19.6509 1.96924H19.7534V7.47705H16.311V7.36719Z" fill="black" fill-opacity="0.85"/>
<path d="M26.99 11H28.8797V0.431152H26.9974L24.2361 2.36475V4.18115L26.8655 2.33545H26.99V11Z" fill="black" fill-opacity="0.85"/>
</svg>
