<svg width="19" height="24" viewBox="0 0 19 24" fill="none" xmlns="http://www.w3.org/2000/svg">
<path d="M8.41152 23.5158C1.31689 13.6421 0 12.6287 0 9C0 4.02942 4.19731 0 9.375 0C14.5527 0 18.75 4.02942 18.75 9C18.75 12.6287 17.4331 13.6421 10.3385 23.5158C9.8729 24.1614 8.87705 24.1614 8.41152 23.5158ZM9.375 12.75C11.5324 12.75 13.2812 11.0711 13.2812 9C13.2812 6.92892 11.5324 5.25 9.375 5.25C7.21763 5.25 5.46875 6.92892 5.46875 9C5.46875 11.0711 7.21763 12.75 9.375 12.75Z" fill="#7C7C7A"/>
</svg>
