<svg width="40" height="38" viewBox="0 0 40 38" fill="none" xmlns="http://www.w3.org/2000/svg">
<path d="M20.075 0C9.47204 0 0.881348 8.43684 0.881348 18.8499C0.881348 29.2629 9.47204 37.6998 20.075 37.6998C30.6779 37.6998 39.2686 29.2629 39.2686 18.8499C39.2686 8.43684 30.6779 0 20.075 0ZM31.2196 20.9781C31.2196 21.4797 30.8017 21.8902 30.2909 21.8902H23.1707V28.8829C23.1707 29.3845 22.7528 29.795 22.242 29.795H17.9079C17.3971 29.795 16.9792 29.3845 16.9792 28.8829V21.8902H9.85901C9.34821 21.8902 8.93028 21.4797 8.93028 20.9781V16.7217C8.93028 16.22 9.34821 15.8096 9.85901 15.8096H16.9792V8.81688C16.9792 8.31523 17.3971 7.90479 17.9079 7.90479H22.242C22.7528 7.90479 23.1707 8.31523 23.1707 8.81688V15.8096H30.2909C30.8017 15.8096 31.2196 16.22 31.2196 16.7217V20.9781Z" fill="#22C7A9"/>
</svg>
