<svg width="23" height="19" viewBox="0 0 23 19" fill="none" xmlns="http://www.w3.org/2000/svg">
<path d="M11.2346 0C5.02839 0 0 4.25136 0 9.49853C0 14.7457 5.02839 18.9971 11.2346 18.9971C17.4408 18.9971 22.4692 14.7457 22.4692 9.49853C22.4692 4.25136 17.4408 0 11.2346 0ZM17.7579 10.5709C17.7579 10.8237 17.5133 11.0305 17.2143 11.0305H13.0466V14.5542C13.0466 14.807 12.802 15.0138 12.503 15.0138H9.96617C9.66719 15.0138 9.42256 14.807 9.42256 14.5542V11.0305H5.25489C4.95591 11.0305 4.71128 10.8237 4.71128 10.5709V8.42611C4.71128 8.17333 4.95591 7.96651 5.25489 7.96651H9.42256V4.44286C9.42256 4.19008 9.66719 3.98325 9.96617 3.98325H12.503C12.802 3.98325 13.0466 4.19008 13.0466 4.44286V7.96651H17.2143C17.5133 7.96651 17.7579 8.17333 17.7579 8.42611V10.5709Z" fill="#22C7A9"/>
</svg>
