<svg width="24" height="20" viewBox="0 0 24 20" fill="none" xmlns="http://www.w3.org/2000/svg">
<path d="M17.4 0C15.312 0 13.308 0.882834 12 2.27793C10.692 0.882834 8.688 0 6.6 0C2.904 0 0 2.6376 0 5.99455C0 10.1144 4.08 13.4714 10.26 18.5722L12 20L13.74 18.5613C19.92 13.4714 24 10.1144 24 5.99455C24 2.6376 21.096 0 17.4 0ZM12.12 16.9482L12 17.0572L11.88 16.9482C6.168 12.2507 2.4 9.14441 2.4 5.99455C2.4 3.81471 4.2 2.17984 6.6 2.17984C8.448 2.17984 10.248 3.25886 10.884 4.75204H13.128C13.752 3.25886 15.552 2.17984 17.4 2.17984C19.8 2.17984 21.6 3.81471 21.6 5.99455C21.6 9.14441 17.832 12.2507 12.12 16.9482Z" fill="#F73859"/>
</svg>
