<svg width="22" height="22" viewBox="0 0 22 22" fill="none" xmlns="http://www.w3.org/2000/svg">
<path d="M21.5326 17.0011L16.5012 11.9699C15.5087 10.9774 14.0264 10.7841 12.8319 11.3727L8.25169 6.7927V4.1246L2.752 0L0.00214829 2.74973L4.12692 8.2492H6.79513L11.3753 12.8292C10.791 14.0236 10.9801 15.5059 11.9726 16.4984L17.0039 21.5295C17.6312 22.1568 18.6453 22.1568 19.2683 21.5295L21.5326 19.2653C22.1556 18.638 22.1556 17.6241 21.5326 17.0011ZM14.2541 9.66702C15.47 9.66702 16.6129 10.1396 17.4723 10.9989L18.3058 11.8324C18.9847 11.536 19.6292 11.1235 20.1877 10.565C21.7818 8.971 22.3232 6.72825 21.8162 4.69173C21.7216 4.30505 21.2361 4.17186 20.9525 4.45542L17.7558 7.65199L14.8384 7.16649L14.3529 4.24919L17.5496 1.05263C17.8332 0.769066 17.6957 0.283566 17.3047 0.184748C15.2681 -0.317938 13.0253 0.223416 11.4355 1.8131C10.211 3.03759 9.63521 4.65306 9.66528 6.26423L13.1928 9.79162C13.5408 9.70999 13.9018 9.66702 14.2541 9.66702ZM9.78988 13.1901L7.35369 10.754L0.805619 17.3061C-0.26854 18.3802 -0.26854 20.1203 0.805619 21.1944C1.87978 22.2685 3.61992 22.2685 4.69407 21.1944L10.0047 15.884C9.67817 15.029 9.57935 14.0967 9.78988 13.1901ZM2.752 20.2793C2.18484 20.2793 1.7208 19.8153 1.7208 19.2481C1.7208 18.6767 2.18054 18.217 2.752 18.217C3.32345 18.217 3.78319 18.6767 3.78319 19.2481C3.78319 19.8153 3.32345 20.2793 2.752 20.2793Z" fill="#7C7C7A"/>
</svg>
