<svg width="22" height="24" viewBox="0 0 22 24" fill="none" xmlns="http://www.w3.org/2000/svg">
<path d="M19 9.53962V6.30944C19.0429 4.67312 18.2253 3.0906 16.726 1.90814C15.2268 0.725688 13.1679 0.0395969 11 0C8.8321 0.0395969 6.77324 0.725688 5.27396 1.90814C3.77468 3.0906 2.95705 4.67312 3 6.30944V9.53962H0V22.3698C0 22.7701 0.210714 23.1541 0.585786 23.4371C0.960859 23.7202 1.46957 23.8792 2 23.8792H20C20.5304 23.8792 21.0391 23.7202 21.4142 23.4371C21.7893 23.1541 22 22.7701 22 22.3698V9.53962H19ZM12 17.2604V19.3509H10V17.1925C9.51315 17.0034 9.12658 16.6944 8.90445 16.3167C8.68232 15.939 8.63797 15.5153 8.77878 15.116C8.91958 14.7167 9.23707 14.3657 9.67855 14.1213C10.12 13.8769 10.659 13.7538 11.2059 13.7723C11.7529 13.7909 12.275 13.9501 12.6856 14.2234C13.0963 14.4968 13.3707 14.8679 13.4634 15.2751C13.5561 15.6824 13.4615 16.1013 13.1953 16.4624C12.9292 16.8235 12.5074 17.1051 12 17.2604ZM17 9.53962H5V6.30944C4.95689 5.07339 5.56376 3.87471 6.68801 2.9753C7.81227 2.0759 9.3625 1.54889 11 1.50943C12.6375 1.54889 14.1877 2.0759 15.312 2.9753C16.4362 3.87471 17.0431 5.07339 17 6.30944V9.53962Z" fill="#22C7A9"/>
</svg>
