<svg width="29" height="31" viewBox="0 0 29 31" fill="none" xmlns="http://www.w3.org/2000/svg">
<path d="M24.5816 12.3421V8.16297C24.6372 6.04595 23.5794 3.99852 21.6397 2.4687C19.6999 0.938874 17.0363 0.0512293 14.2315 0C11.4267 0.0512293 8.76303 0.938874 6.8233 2.4687C4.88357 3.99852 3.82575 6.04595 3.88131 8.16297V12.3421H0V28.9414C0 29.4594 0.272615 29.9561 0.757873 30.3223C1.24313 30.6885 1.90128 30.8943 2.58754 30.8943H25.8754C26.5617 30.8943 27.2198 30.6885 27.7051 30.3223C28.1903 29.9561 28.463 29.4594 28.463 28.9414V12.3421H24.5816ZM15.5253 22.331V25.0357H12.9377V22.2431C12.3078 21.9985 11.8077 21.5987 11.5203 21.1101C11.2329 20.6214 11.1756 20.0733 11.3577 19.5567C11.5399 19.04 11.9506 18.5859 12.5218 18.2697C13.093 17.9535 13.7903 17.7942 14.4979 17.8183C15.2056 17.8423 15.8811 18.0482 16.4123 18.4019C16.9436 18.7555 17.2986 19.2356 17.4186 19.7625C17.5385 20.2894 17.4161 20.8314 17.0718 21.2986C16.7274 21.7658 16.1817 22.1301 15.5253 22.331ZM21.9941 12.3421H6.46885V8.16297C6.41307 6.5638 7.19823 5.01298 8.65276 3.84936C10.1073 2.68574 12.1129 2.00391 14.2315 1.95286C16.35 2.00391 18.3557 2.68574 19.8102 3.84936C21.2647 5.01298 22.0499 6.5638 21.9941 8.16297V12.3421Z" fill="#22C7A9"/>
</svg>
