<svg width="29" height="23" viewBox="0 0 29 23" fill="none" xmlns="http://www.w3.org/2000/svg">
<path d="M8.61592 18.3499C7.03633 18.3499 5.75831 19.3821 5.75831 20.6436C5.75831 21.9052 7.03633 22.9374 8.61592 22.9374C10.1955 22.9374 11.4879 21.9052 11.4879 20.6436C11.4879 19.3821 10.1955 18.3499 8.61592 18.3499ZM0 0V2.29374H2.87197L8.04152 10.9985L6.10294 13.8083C5.87318 14.1294 5.74394 14.5079 5.74394 14.9093C5.74394 16.1708 7.03633 17.203 8.61592 17.203H25.8478V14.9093H9.21903C9.01799 14.9093 8.86003 14.7831 8.86003 14.6226L8.90311 14.4849L10.1955 12.6156H20.8936C21.9706 12.6156 22.9183 12.1453 23.4066 11.4343L28.5474 3.9911C28.6623 3.83054 28.7197 3.63557 28.7197 3.4406C28.7197 2.80983 28.0735 2.29374 27.2837 2.29374H6.0455L4.69568 0H0ZM22.9758 18.3499C21.3962 18.3499 20.1182 19.3821 20.1182 20.6436C20.1182 21.9052 21.3962 22.9374 22.9758 22.9374C24.5554 22.9374 25.8478 21.9052 25.8478 20.6436C25.8478 19.3821 24.5554 18.3499 22.9758 18.3499Z" fill="white"/>
</svg>
