<svg width="25" height="24" viewBox="0 0 25 24" fill="none" xmlns="http://www.w3.org/2000/svg">
<path d="M22.8765 0H2.07968C0.931524 0 0 1.15178 0 2.57143V21.4285C0 22.8482 0.931524 24 2.07968 24H22.8765C24.0247 24 24.9562 22.8482 24.9562 21.4285V2.57143C24.9562 1.15178 24.0247 0 22.8765 0ZM7.6255 5.14285C9.15493 5.14285 10.3984 6.68035 10.3984 8.57142C10.3984 10.4625 9.15493 12 7.6255 12C6.09607 12 4.85259 10.4625 4.85259 8.57142C4.85259 6.68035 6.09607 5.14285 7.6255 5.14285ZM12.4781 17.8285C12.4781 18.3964 12.0448 18.8571 11.5076 18.8571H3.74343C3.20618 18.8571 2.77291 18.3964 2.77291 17.8285V16.8C2.77291 15.0964 4.07704 13.7143 5.68446 13.7143H5.90109C6.43401 13.9875 7.01459 14.1428 7.6255 14.1428C8.2364 14.1428 8.82131 13.9875 9.3499 13.7143H9.56653C11.174 13.7143 12.4781 15.0964 12.4781 16.8V17.8285ZM22.1833 15C22.1833 15.2357 22.0273 15.4286 21.8367 15.4286H15.5976C15.407 15.4286 15.251 15.2357 15.251 15V14.1428C15.251 13.9071 15.407 13.7143 15.5976 13.7143H21.8367C22.0273 13.7143 22.1833 13.9071 22.1833 14.1428V15ZM22.1833 11.5714C22.1833 11.8071 22.0273 12 21.8367 12H15.5976C15.407 12 15.251 11.8071 15.251 11.5714V10.7143C15.251 10.4786 15.407 10.2857 15.5976 10.2857H21.8367C22.0273 10.2857 22.1833 10.4786 22.1833 10.7143V11.5714ZM22.1833 8.14285C22.1833 8.37856 22.0273 8.57142 21.8367 8.57142H15.5976C15.407 8.57142 15.251 8.37856 15.251 8.14285V7.28571C15.251 7.04999 15.407 6.85713 15.5976 6.85713H21.8367C22.0273 6.85713 22.1833 7.04999 22.1833 7.28571V8.14285Z" fill="#7C7C7A"/>
</svg>
